<svg width="208" height="46" viewBox="0 0 208 46" fill="none" xmlns="http://www.w3.org/2000/svg">
<g clip-path="url(#clip0_43_2)">
<path d="M154.267 8.29318C154.729 9.79683 154.787 10.8378 152.591 10.6643C150.049 10.4908 147.507 10.6065 144.444 10.6065C148.2 17.3729 151.667 23.7345 155.249 30.1539C157.791 27.0309 157.907 21.4212 155.653 18.4717C155.422 18.1825 155.133 17.8356 155.191 17.5464C155.307 16.9102 155.884 16.9681 156.347 17.0259C158.369 17.2572 159.409 18.4139 159.524 20.438C159.698 23.7345 159.64 27.0309 158.138 30.0382C156.982 32.2359 156.924 34.2022 158.542 36.1685C158.947 36.689 159.813 37.5564 159.004 38.1348C158.138 38.8288 157.156 38.3083 156.636 37.3251C155.827 35.7058 155.076 35.648 153.631 36.9203C151.147 39.1758 147.969 39.3493 145.08 38.0769C142.191 36.8046 140.169 34.3178 139.88 30.9635C139.476 26.0478 139.649 21.2477 144.849 18.5295C146.12 17.8356 145.196 16.8524 144.849 16.0427C143.751 13.5559 141.498 11.474 142.133 8.35101C146.178 8.29318 150.222 8.29318 154.267 8.29318ZM141.498 28.3379C142.076 31.3452 142.653 34.4104 146.004 36.0297C148.662 37.2442 150.858 36.3767 152.938 34.7574C153.804 34.0634 154.44 33.3694 153.747 32.0971C151.782 28.6849 149.876 25.215 148.027 21.745C147.044 19.9522 145.889 20.1257 144.502 21.2245C142.249 23.0405 141.902 25.5851 141.498 28.3379Z" fill="#E0D6D6"/>
<path d="M81.4667 45.8843C80.4845 44.8433 78.7511 44.1493 79.6178 42.1252C79.8489 41.6047 80.1378 40.9686 80.7156 40.9107C81.2933 40.8529 81.3511 41.4312 81.5245 41.8939C82.7378 44.3807 84.9333 43.6867 86.84 43.3397C89.2667 42.877 91.52 41.836 92.3289 39.2336C92.7911 37.7878 91.6933 37.0938 90.3067 37.2094C88.6889 37.3251 87.0711 37.6721 85.4533 37.7878C83.72 37.9034 82.2178 37.5564 81.2933 35.8215C80.4267 34.2021 81.3511 33.0455 82.3333 32.0045C83.0845 31.1949 83.0267 30.6744 82.3911 29.8069C78.52 24.6019 81.1778 17.662 87.5333 16.5054C89.1511 16.2162 90.1911 15.4066 90.6533 13.9029C90.8844 13.1511 90.8267 12.168 91.9822 12.5728C93.1378 12.9776 93.4844 14.3656 92.7911 14.8861C89.9022 16.9102 91.1156 18.8765 92.3289 21.132C92.9067 22.2308 92.9644 23.7345 93.0222 25.0646C93.1577 26.604 92.6818 28.1348 91.6977 29.3255C90.7136 30.5162 89.3005 31.2709 87.7644 31.4262C87.3783 31.4151 86.992 31.4344 86.6089 31.484C85.1067 31.831 83.2 32.3515 83.4311 34.2021C83.6622 36.2841 85.6845 35.4166 87.0133 35.4745C87.8222 35.4745 88.6889 35.0696 89.5556 35.0118C91.3467 34.8383 93.0222 34.8383 94.0044 36.8046C94.9867 38.7709 94.4089 40.4481 93.1956 42.1252C91.6933 44.1493 89.3244 44.7855 87.2444 46C85.3378 45.8843 83.3733 45.8843 81.4667 45.8843ZM90.7111 24.1393C90.7442 23.7738 90.7442 23.406 90.7111 23.0405C90.4222 20.9007 89.5556 19.05 87.1867 18.7609C84.8178 18.4717 83.6622 20.2645 83.1422 22.4043C83.0267 22.867 82.8533 23.3296 82.7378 23.7923C82.3911 25.7008 82.68 27.4357 84.24 28.7081C85.8 29.9804 87.4178 29.749 89.0933 28.9972C91 28.1297 90.7689 26.3948 90.7111 24.1393Z" fill="#E0D6D6"/>
<path d="M116.711 45.8843C115.671 44.7855 113.822 43.9758 114.978 41.8939C115.498 40.9107 116.076 40.1589 116.827 41.8939C117.924 44.4385 120.236 43.7445 122.084 43.3975C124.511 42.9349 126.764 41.8939 127.573 39.2914C128.036 37.8456 126.996 37.1516 125.609 37.2094C123.876 37.3251 122.2 37.6721 120.467 37.7878C118.964 37.9034 117.578 37.4986 116.769 36.1106C115.902 34.607 116.538 33.3347 117.462 32.178C118.156 31.3105 118.444 30.79 117.636 29.749C113.707 24.6598 116.422 17.662 122.778 16.4476C124.396 16.1584 125.436 15.3487 125.898 13.8451C126.129 13.0933 126.071 12.1101 127.227 12.5149C128.209 12.8619 128.671 14.0764 127.978 14.5391C124.511 17.0259 127.111 19.5127 127.747 21.9995C129.249 28.0141 127.747 30.2695 121.738 31.4262C120.777 31.5572 119.895 32.0292 119.253 32.7563C118.156 34.0865 118.387 35.1275 120.178 35.4166C121.616 35.5697 123.07 35.4321 124.453 35.0118C126.244 34.6648 128.324 34.4335 129.191 36.5733C129.942 38.4818 129.942 40.3902 128.382 42.183C126.822 43.9758 124.511 44.612 122.604 45.8265C120.582 45.8843 118.618 45.8843 116.711 45.8843ZM125.956 24.7176C125.956 20.9585 124.511 18.6452 122.142 18.703C119.658 18.703 117.867 21.2477 117.867 24.8333C117.867 27.6092 119.716 29.749 122.084 29.6334C124.858 29.4946 125.956 28.1297 125.956 24.7176Z" fill="#E0D6D6"/>
<path d="M182.578 8.29318C184.947 10.086 186.391 12.3415 185.987 15.4066C185.871 16.3319 185.351 17.2572 184.484 17.2572C183.329 17.2572 183.733 16.1006 183.733 15.4644C183.733 13.0355 183.156 10.9535 180.44 10.433C177.898 9.97033 176.222 11.474 175.24 13.6138C172.582 19.397 171.542 25.4116 173.276 31.7154C174.142 34.8383 176.569 36.1106 179.458 36.5733C182.462 37.036 184.716 34.954 184.716 31.9467C184.716 31.1949 184.08 30.3274 185.467 30.3274C186.564 30.3274 186.911 31.2527 187.084 32.0624C187.604 34.4913 185.062 37.6721 182.173 38.3083C174.778 40.0432 170.618 35.5901 169.982 28.4189C169.518 22.9354 170.641 17.4341 173.218 12.5728C174.2 10.6643 176.107 9.85466 177.378 8.29318H182.578Z" fill="#E0D6D6"/>
<path d="M41.0222 8.29318C41.4165 9.06183 41.615 9.91606 41.6 10.78C41.6 19.2235 41.5422 27.6671 41.6 36.1106C41.6 37.9034 40.9645 38.5974 39.2889 38.3661C39.2889 28.8816 39.3467 19.4549 39.2311 9.97032C39.2311 8.52451 39.6356 8.00401 41.0222 8.29318Z" fill="#E0D6D6"/>
<path d="M208 38.3661C207.018 38.3083 205.458 38.7131 205.4 37.3251C205.284 35.648 206.96 36.1106 208 36.0528V38.3661Z" fill="#E0D6D6"/>
<path d="M45.0666 27.6671V18.9922C45.0666 17.7777 44.8933 16.2741 46.8578 17.6042C47.4355 18.0091 47.7244 17.4307 48.1289 17.2572C48.6489 17.0259 49.2266 16.9102 49.7466 16.6789C52.1733 15.7536 54.08 19.05 55.4089 18.356C57.4311 17.3151 59.0489 16.1584 61.4178 16.9681C63.9022 17.7777 64.48 20.0332 64.5955 21.9995C64.8844 26.9153 64.7111 31.831 64.7111 36.7468C64.7111 37.5564 64.5378 38.3661 63.4978 38.2504C62.4578 38.1348 62.4578 37.2673 62.4578 36.5155V24.3706C62.4474 23.4192 62.3507 22.4707 62.1689 21.5368C61.8222 19.744 60.9555 18.356 58.8755 18.7609C57.0844 19.1079 56.1022 20.3802 56.1022 22.2887C56.1022 26.5104 56.16 30.79 56.0444 35.0118C55.9866 36.1685 56.9689 38.2504 54.8889 38.1926C52.9822 38.1348 53.9066 36.0528 53.8489 34.8962C53.5022 30.5009 54.2533 26.0478 53.3866 21.6525C53.04 19.9175 52.4044 18.8187 50.4978 18.7609C48.4755 18.6452 47.84 19.9754 47.4355 21.5368C46.3955 25.3538 47.1466 29.2286 46.9733 33.0455C46.9155 34.3178 46.9733 35.5323 46.9733 36.8046C46.9733 37.4408 47.0311 38.3083 46.0489 38.2504C45.0666 38.1926 45.24 37.3251 45.24 36.689C45.0666 33.6238 45.0666 30.6165 45.0666 27.6671Z" fill="#E0D6D6"/>
<path d="M78 29.3442V36.2841C78.0623 36.8405 77.962 37.403 77.7111 37.9034C77.1333 38.6553 70.0267 38.4239 69.1022 37.7299C66.2711 35.7058 66.7911 32.7563 67.3111 30.096C67.5735 28.6526 68.2945 27.3325 69.3668 26.3322C70.439 25.3319 71.8053 24.7047 73.2622 24.5441C74.9378 24.255 76.0356 24.0815 75.7467 22.0573C75.5156 20.3802 75.2844 18.703 73.0889 18.6452C71.24 18.5874 69.7955 18.9922 69.9111 21.3055C69.9689 22.0573 69.68 22.6935 68.7555 22.52C68.0044 22.3465 67.7733 21.7682 67.6578 21.0163C67.3111 18.4139 71.24 15.7536 74.0711 16.6789C76.7289 17.5464 77.9422 19.3392 78 22.0573V29.3442ZM75.6889 30.6512C75.2844 29.3789 76.6711 27.2391 74.88 26.4873C73.6667 25.9668 71.8755 26.8921 70.7778 27.9909C70.1185 28.6197 69.6058 29.3861 69.2763 30.2358C68.9467 31.0855 68.8084 31.9974 68.8711 32.9067C69.0444 35.1043 70.2 36.7237 72.7422 36.5502C75.2844 36.3767 75.92 34.873 75.6889 32.6175C75.6311 32.0624 75.6889 31.484 75.6889 30.6512Z" fill="#E0D6D6"/>
<path d="M101.111 27.4358V18.7609C101.111 17.3151 101.631 16.3319 103.133 17.3729C104.173 18.0669 104.751 17.3729 105.444 17.0259C108.911 15.5801 112.436 17.6621 112.551 21.479C112.667 26.4526 112.609 31.484 112.551 36.4576C112.551 37.2095 112.667 38.1348 111.569 38.1926C110.298 38.3083 110.298 37.3251 110.298 36.4576V22.9248C110.298 20.8429 110.009 18.9344 107.467 18.7031C105.04 18.4717 104.058 20.2067 103.653 22.173C103.018 25.4695 103.48 28.8816 103.364 32.2359C103.307 33.566 103.364 34.954 103.364 36.2842C103.364 37.0938 103.538 38.1926 102.267 38.1926C100.996 38.1926 101.111 37.1516 101.111 36.342V27.4358Z" fill="#E1D7D7"/>
<path d="M202.8 28.8237C202.8 34.4913 201.298 37.4408 198.005 38.3083C191.822 39.8698 188.702 35.648 188.471 29.6912C188.43 26.6168 189.081 23.5725 190.378 20.785C191.533 18.2404 193.325 16.5054 195.982 16.6211C198.64 16.7368 200.373 18.8766 201.356 21.3055C202.338 23.7345 203.089 26.4526 202.8 28.8237ZM190.609 29.4599C190.711 31.1216 191.123 32.7496 191.822 34.26C192.747 36.1106 194.364 36.8046 196.387 36.5733C197.316 36.546 198.21 36.2058 198.923 35.6077C199.636 35.0096 200.126 34.1884 200.316 33.2769C201.249 29.1664 200.823 24.8636 199.102 21.0164C198.467 19.5705 197.369 18.6452 195.809 18.7031C194.364 18.7609 193.44 19.6284 192.689 20.9007C191.187 23.561 191.36 26.5104 190.609 29.4599Z" fill="#E0D6D6"/>
<path d="M95.9111 27.6671V19.05C95.9111 18.2404 95.68 17.1416 96.9511 17.0837C98.2222 17.0259 98.1644 18.0669 98.1644 18.8765V36.4345C98.1644 37.302 98.28 38.343 96.9511 38.2851C95.6222 38.2273 95.8533 37.1285 95.8533 36.3188C95.9111 33.3925 95.9111 30.5587 95.9111 27.6671Z" fill="#E1D7D7"/>
<path d="M98.6267 12.3415C98.3956 13.2668 97.6445 13.4981 96.8356 13.4403C96.0267 13.3825 95.4489 13.0355 95.5645 12.2258C95.5982 11.8388 95.7787 11.4794 96.0687 11.2213C96.3588 10.9632 96.7366 10.826 97.1245 10.8378C97.5061 10.8861 97.8607 11.0601 98.1327 11.3323C98.4047 11.6045 98.5785 11.9595 98.6267 12.3415Z" fill="#E0D6D6"/>
<path d="M24.8445 9.04503H5.37335C4.66728 9.0435 3.96787 9.18158 3.31526 9.45133C2.66265 9.72108 2.06969 10.1172 1.57043 10.6169C1.07116 11.1167 0.675426 11.7102 0.40593 12.3634C0.136435 13.0166 -0.00151086 13.7167 1.24802e-05 14.4235V33.8552C-0.00151086 34.5619 0.136435 35.262 0.40593 35.9152C0.675426 36.5685 1.07116 37.162 1.57043 37.6617C2.06969 38.1614 2.66265 38.5576 3.31526 38.8273C3.96787 39.0971 4.66728 39.2351 5.37335 39.2336H24.8445C25.5505 39.2351 26.2499 39.0971 26.9025 38.8273C27.5552 38.5576 28.1481 38.1614 28.6474 37.6617C29.1466 37.162 29.5424 36.5685 29.8119 35.9152C30.0814 35.262 30.2193 34.5619 30.2178 33.8552V14.4235C30.2102 12.9993 29.6416 11.6357 28.6356 10.6287C27.6295 9.62171 26.2672 9.05262 24.8445 9.04503ZM5.37335 11.2427H24.8445C25.6991 11.2411 26.5194 11.5787 27.1259 12.1814C27.7323 12.784 28.0754 13.6028 28.08 14.4582V20.4727L26.0578 18.4486C25.7595 18.1461 25.4042 17.9059 25.0124 17.742C24.6206 17.578 24.2002 17.4936 23.7756 17.4936C23.3509 17.4936 22.9305 17.578 22.5388 17.742C22.147 17.9059 21.7916 18.1461 21.4933 18.4486L12.8845 27.0888L9.6489 24.4863C9.07143 24.0097 8.34627 23.749 7.59779 23.749C6.84931 23.749 6.12415 24.0097 5.54668 24.4863L2.19557 27.2623V14.4235C2.18934 14.004 2.26727 13.5876 2.42477 13.1989C2.58226 12.8101 2.8161 12.457 3.11243 12.1604C3.40877 11.8638 3.76157 11.6297 4.14993 11.4721C4.53829 11.3144 4.95431 11.2364 5.37335 11.2427ZM24.8445 37.1516H5.37335C4.94823 37.1524 4.52715 37.0692 4.13425 36.9067C3.74135 36.7442 3.38437 36.5057 3.08377 36.2048C2.78316 35.9039 2.54486 35.5466 2.38253 35.1533C2.2202 34.76 2.13703 34.3385 2.13779 33.913V30.0729L6.87557 26.1403C7.06737 25.972 7.31379 25.8791 7.5689 25.8791C7.82402 25.8791 8.07043 25.972 8.26224 26.1403L12.3067 29.3789C12.5181 29.5352 12.7765 29.6145 13.0391 29.604C13.3016 29.5935 13.5528 29.4937 13.7511 29.3211L22.9956 20.0679C23.1971 19.8729 23.4664 19.7638 23.7467 19.7638C24.027 19.7638 24.2963 19.8729 24.4978 20.0679L28.0222 23.5957V33.9477C28.0316 34.3691 27.956 34.788 27.7999 35.1794C27.6438 35.5709 27.4105 35.9268 27.1138 36.2259C26.8172 36.525 26.4633 36.7611 26.0734 36.9202C25.6834 37.0792 25.2655 37.158 24.8445 37.1516Z" fill="#E0D6D6"/>
<path d="M8.60891 20.9585C9.24884 20.9585 9.8744 20.7686 10.4065 20.4127C10.9386 20.0569 11.3533 19.5511 11.5982 18.9593C11.8431 18.3675 11.9071 17.7163 11.7823 17.0881C11.6574 16.4599 11.3493 15.8828 10.8968 15.4299C10.4443 14.9769 9.86777 14.6685 9.24013 14.5435C8.6125 14.4186 7.96193 14.4827 7.37071 14.7278C6.77949 14.9729 6.27417 15.388 5.91864 15.9206C5.56311 16.4532 5.37335 17.0794 5.37335 17.7199C5.38237 18.5761 5.72616 19.3946 6.331 20C6.93584 20.6054 7.75358 20.9495 8.60891 20.9585ZM8.60891 16.6211C8.82603 16.6211 9.03827 16.6855 9.2188 16.8063C9.39933 16.927 9.54003 17.0986 9.62312 17.2994C9.70621 17.5002 9.72795 17.7211 9.68559 17.9343C9.64323 18.1474 9.53868 18.3432 9.38515 18.4969C9.23163 18.6506 9.03602 18.7552 8.82307 18.7976C8.61013 18.84 8.3894 18.8183 8.18881 18.7351C7.98821 18.6519 7.81676 18.5111 7.69614 18.3304C7.57551 18.1497 7.51113 17.9372 7.51113 17.7199C7.52514 17.433 7.64529 17.1616 7.84821 16.9585C8.05112 16.7554 8.32228 16.6351 8.60891 16.6211Z" fill="#E0D6D6"/>
<path d="M35.8222 9.21851C35.6095 8.65917 35.3176 8.13332 34.9556 7.65703C31.7778 3.14609 27.2133 1.46895 24.44 0.485795C22.9956 -0.0346975 22.6489 -0.0346975 22.4178 0.023135C20.8578 0.312298 20.4533 2.16294 17.5067 8.40885C16.8133 9.79683 16.3511 10.3173 16.6978 10.3173C17.0445 10.3173 23.92 9.21851 26.5778 11.1848C28.7156 12.8041 29.12 17.7777 29.12 18.5874C29.1175 18.641 29.1265 18.6946 29.1465 18.7445C29.1664 18.7944 29.1968 18.8394 29.2356 18.8765C29.5822 19.1079 30.7956 17.8934 31.2578 17.6042C34.0889 15.8114 36.6889 12.1101 35.8222 9.21851ZM29.4667 16.8524C29.8133 11.821 24.0356 9.27634 20.8 10.78C19.0089 11.6475 18.8933 10.5487 18.8933 9.79683C18.8933 7.31003 19.9911 4.36057 22.4178 2.91476C22.7219 2.7152 23.0525 2.55945 23.4 2.4521C27.3867 1.17979 32.4711 6.15338 33.9156 10.1438C34.0662 10.5337 34.1634 10.9423 34.2045 11.3583C34.2622 13.7294 29.2933 19.2235 29.4667 16.8524Z" fill="#E0D6D6"/>
<path d="M23.2267 6.84738C23.5894 7.15586 24.0581 7.31035 24.533 7.27795C25.0079 7.24554 25.4513 7.02879 25.7689 6.67389C25.9403 6.50753 26.0755 6.30752 26.166 6.08641C26.2566 5.8653 26.3005 5.62785 26.2951 5.38894C26.2897 5.15004 26.235 4.91483 26.1345 4.69806C26.034 4.4813 25.8899 4.28765 25.7111 4.12926C25.3484 3.82078 24.8796 3.66629 24.4047 3.69869C23.9299 3.7311 23.4864 3.94785 23.1689 4.30275C22.9975 4.46911 22.8623 4.66912 22.7717 4.89023C22.6812 5.11134 22.6372 5.34879 22.6427 5.5877C22.6481 5.8266 22.7028 6.06181 22.8032 6.27858C22.9037 6.49534 23.0479 6.68899 23.2267 6.84738ZM24.9022 4.99674C25.0131 5.11385 25.075 5.2691 25.075 5.43049C25.075 5.59188 25.0131 5.74712 24.9022 5.86423C24.8522 5.92956 24.7889 5.98346 24.7164 6.02233C24.6439 6.0612 24.564 6.08413 24.482 6.08961C24.3999 6.09508 24.3177 6.08297 24.2407 6.05407C24.1637 6.02518 24.0938 5.98018 24.0355 5.92206C23.9246 5.80495 23.8628 5.64971 23.8628 5.48832C23.8628 5.32693 23.9246 5.17169 24.0355 5.05458C24.0855 4.98924 24.1489 4.93534 24.2214 4.89648C24.2938 4.85761 24.3738 4.83468 24.4558 4.8292C24.5378 4.82373 24.6201 4.83584 24.6971 4.86473C24.7741 4.89363 24.844 4.93863 24.9022 4.99674Z" fill="#E0D6D6"/>
</g>
<defs>
<clipPath id="clip0_43_2">
<rect width="208" height="46" fill="white"/>
</clipPath>
</defs>
</svg>
